<svg width="30" height="30" fill="none" xmlns="http://www.w3.org/2000/svg"><g clip-path="url(#clip0)"><path d="M0 15.03c0-2.72.673-5.235 2.02-7.545A14.93 14.93 0 017.495 2.01C9.798.67 12.303 0 15.01 0c2.03 0 3.969.397 5.816 1.19 1.848.794 3.442 1.861 4.782 3.202 1.34 1.34 2.408 2.937 3.201 4.791A14.702 14.702 0 0130 15.03c0 2.03-.397 3.972-1.19 5.827-.794 1.854-1.861 3.448-3.202 4.782-1.34 1.333-2.934 2.394-4.782 3.181A14.687 14.687 0 0115.01 30c-2.043 0-3.992-.397-5.846-1.19-1.854-.794-3.452-1.861-4.792-3.202-1.34-1.34-2.404-2.93-3.191-4.772A14.618 14.618 0 010 15.029zm3.299 0c0 3.161 1.151 5.907 3.454 8.236 2.304 2.303 5.056 3.455 8.257 3.455 2.108 0 4.06-.524 5.855-1.571a11.734 11.734 0 004.275-4.265 11.364 11.364 0 001.58-5.856c0-2.108-.526-4.063-1.58-5.865a11.71 11.71 0 00-4.275-4.275c-1.795-1.047-3.747-1.57-5.855-1.57-2.108 0-4.06.523-5.856 1.57A11.71 11.71 0 004.88 9.164a11.416 11.416 0 00-1.581 5.865zm10.56 0V6.147c0-.312.107-.575.321-.79.215-.215.478-.322.79-.322.313 0 .576.107.791.322.215.215.322.478.322.79v8.198l4.782 2.791c.26.156.43.38.508.674.078.292.039.569-.117.83-.209.377-.527.565-.957.565a.997.997 0 01-.566-.156l-5.094-2.967a1.07 1.07 0 01-.556-.39 1.063 1.063 0 01-.225-.664z" fill="#EB0045"/></g><defs><clipPath id="clip0"><path d="M0 0h30v30H0V0z" fill="#fff"/></clipPath></defs></svg>