<svg width="29" height="29" fill="none" xmlns="http://www.w3.org/2000/svg"><path d="M22.364 15.43a1.462 1.462 0 00-2.073 0l-2.335 2.336c-1.084-.323-3.104-1.055-4.385-2.336-1.281-1.281-2.014-3.302-2.336-4.385l2.336-2.336a1.462 1.462 0 000-2.073L7.709.774a1.464 1.464 0 00-2.073 0L1.662 4.75a2.929 2.929 0 00-.859 2.103c.034 2.087.586 9.335 6.299 15.048 5.712 5.712 12.96 6.264 15.05 6.299h.04c.774 0 1.505-.305 2.06-.86l3.974-3.974a1.464 1.464 0 000-2.072l-5.862-5.863zm-.186 9.836c-1.83-.03-8.087-.522-13.004-5.44-4.933-4.933-5.41-11.213-5.44-13.005l2.938-2.938 3.79 3.79-1.895 1.895a1.466 1.466 0 00-.398 1.336c.035.169.895 4.165 3.328 6.598s6.43 3.293 6.598 3.328a1.451 1.451 0 001.336-.397l1.897-1.895 3.79 3.79-2.94 2.938z" fill="#EB0045"/></svg>