<svg width="17" height="15" fill="none" xmlns="http://www.w3.org/2000/svg"><path fill-rule="evenodd" clip-rule="evenodd" d="M2.607 2.457a.628.628 0 00-.624.623v8.84c0 .341.283.623.624.623h11.786a.628.628 0 00.624-.623V3.08a.628.628 0 00-.624-.623H2.607zM.283 3.08A2.328 2.328 0 012.607.757h11.786a2.328 2.328 0 012.324 2.323v8.84a2.328 2.328 0 01-2.324 2.323H2.607A2.328 2.328 0 01.283 11.92V3.08z" fill="#EB0045"/><path fill-rule="evenodd" clip-rule="evenodd" d="M.437 2.593a.85.85 0 011.184-.209L8.5 7.2l6.88-4.816a.85.85 0 01.974 1.393L8.987 8.934a.85.85 0 01-.975 0L.646 3.777a.85.85 0 01-.21-1.184z" fill="#EB0045"/></svg>