<svg width="16" height="16" fill="none" xmlns="http://www.w3.org/2000/svg"><path d="M7.599.002C6.315.018 3.554.23 2.01 1.645.862 2.783.461 4.465.414 6.546.375 8.62.328 12.512 4.08 13.572v1.615s-.023.646.404.778c.526.167.825-.33 1.325-.864l.933-1.055c2.567.214 4.534-.278 4.76-.351.521-.167 3.456-.542 3.935-4.435.493-4.021-.239-6.555-1.56-7.7h-.008c-.398-.368-2-1.535-5.578-1.548 0 0-.265-.018-.692-.01zm.044 1.13c.364-.002.586.014.586.014 3.029.008 4.474.92 4.815 1.226 1.112.953 1.685 3.237 1.265 6.594-.398 3.255-2.778 3.461-3.218 3.602-.188.06-1.92.487-4.102.346 0 0-1.625 1.961-2.133 2.466-.08.089-.175.115-.235.102-.086-.021-.112-.128-.107-.274l.016-2.68c-3.183-.88-2.995-4.2-2.961-5.934.039-1.735.364-3.154 1.333-4.115 1.305-1.18 3.649-1.338 4.74-1.346h.001zm.24 1.735a.198.198 0 00-.2.198.2.2 0 00.2.2 3.756 3.756 0 012.687 1.06c.727.706 1.081 1.654 1.095 2.893 0 .11.088.2.2.2v-.007a.2.2 0 00.2-.198 4.31 4.31 0 00-1.208-3.175c-.791-.773-1.795-1.172-2.974-1.172zm-2.636.458a.626.626 0 00-.409.08h-.01c-.286.168-.543.38-.763.628-.183.211-.282.425-.308.63a.852.852 0 00.032.362l.013.008c.205.604.474 1.185.802 1.732.422.769.942 1.48 1.547 2.115l.018.026.028.02.018.022.021.018c.638.606 1.35 1.129 2.12 1.554.88.48 1.414.706 1.735.8v.005c.094.028.18.041.266.041.273-.02.531-.13.734-.315a3.05 3.05 0 00.62-.765v-.005c.153-.29.101-.563-.12-.748a9.234 9.234 0 00-1.432-1.028c-.342-.185-.688-.073-.829.114l-.299.378c-.154.187-.433.161-.433.161l-.008.005c-2.08-.531-2.635-2.638-2.635-2.638s-.026-.286.166-.432l.375-.302c.18-.146.305-.492.112-.834a8.996 8.996 0 00-1.026-1.432.57.57 0 00-.336-.2h.001zm2.982.594c-.266 0-.266.401.002.401a2.513 2.513 0 011.766.766 2.33 2.33 0 01.599 1.713.201.201 0 00.2.198l.009.01a.202.202 0 00.2-.2c.018-.794-.229-1.46-.714-1.995-.487-.534-1.166-.833-2.034-.893H8.23zm.328 1.078c-.273-.008-.284.401-.013.41.66.033.98.366 1.021 1.051a.199.199 0 00.198.196h.008a.202.202 0 00.193-.214c-.047-.893-.534-1.396-1.399-1.442h-.008z" fill="#253746"/></svg>