<svg width="16" height="16" fill="none" xmlns="http://www.w3.org/2000/svg"><path d="M12.24 8.743a.83.83 0 00-1.175 0l-1.324 1.324c-.613-.183-1.758-.598-2.484-1.324-.726-.725-1.141-1.87-1.324-2.484l1.324-1.324a.83.83 0 000-1.174L3.935.439a.83.83 0 00-1.174 0L.508 2.69a1.66 1.66 0 00-.486 1.192c.019 1.182.332 5.29 3.57 8.527 3.236 3.237 7.344 3.55 8.527 3.57h.023a1.64 1.64 0 001.167-.488l2.252-2.252a.828.828 0 000-1.174L12.24 8.743zm-.106 5.574c-1.036-.017-4.582-.295-7.369-3.082C1.97 8.439 1.7 4.88 1.683 3.865L3.348 2.2l2.147 2.148-1.074 1.074a.83.83 0 00-.225.757c.02.095.507 2.36 1.886 3.739 1.378 1.378 3.643 1.866 3.738 1.886a.823.823 0 00.758-.225l1.074-1.074 2.148 2.147-1.666 1.665z" fill="#EB0045"/></svg>