<svg width="17" height="17" fill="none" xmlns="http://www.w3.org/2000/svg"><path d="M0 8.517C0 6.975.382 5.55 1.145 4.242a8.46 8.46 0 013.102-3.103A8.319 8.319 0 018.506 0c1.15 0 2.248.225 3.296.675a8.57 8.57 0 012.71 1.814 8.553 8.553 0 011.813 2.715A8.33 8.33 0 0117 8.517a8.3 8.3 0 01-.675 3.301 8.488 8.488 0 01-1.814 2.71 8.542 8.542 0 01-2.71 1.803A8.324 8.324 0 018.507 17a8.33 8.33 0 01-3.313-.675 8.553 8.553 0 01-2.715-1.814A8.51 8.51 0 01.67 11.807 8.284 8.284 0 010 8.517zm1.87 0c0 1.791.652 3.347 1.957 4.667 1.305 1.305 2.865 1.958 4.679 1.958 1.194 0 2.3-.297 3.318-.89a6.649 6.649 0 002.422-2.417 6.439 6.439 0 00.896-3.318 6.469 6.469 0 00-.896-3.324 6.636 6.636 0 00-2.422-2.422 6.47 6.47 0 00-3.318-.89 6.47 6.47 0 00-3.319.89 6.636 6.636 0 00-2.422 2.422 6.469 6.469 0 00-.896 3.324zm5.983 0V3.484c0-.177.06-.326.182-.448a.609.609 0 01.448-.182c.177 0 .327.06.448.182a.609.609 0 01.183.448V8.13l2.71 1.582a.614.614 0 01.287.382.586.586 0 01-.066.47.58.58 0 01-.542.32.566.566 0 01-.32-.088L8.294 9.114a.606.606 0 01-.315-.221.602.602 0 01-.127-.376z" fill="#EB0045"/></svg>