<svg width="20" height="20" fill="none" xmlns="http://www.w3.org/2000/svg"><path d="M10 6.147a3.853 3.853 0 100 7.707 3.853 3.853 0 000-7.707zm0 6.356a2.503 2.503 0 11-.001-5.006 2.503 2.503 0 010 5.006zm4.005-5.599a.898.898 0 100-1.797.898.898 0 000 1.797z" fill="#253746"/><path d="M17.11 5.092A3.838 3.838 0 0014.918 2.9a5.505 5.505 0 00-1.822-.35c-.803-.035-1.057-.045-3.092-.045s-2.295 0-3.091.045a5.462 5.462 0 00-1.82.35 3.833 3.833 0 00-2.194 2.193 5.487 5.487 0 00-.35 1.822c-.035.802-.046 1.056-.046 3.092 0 2.035 0 2.294.046 3.091.013.624.13 1.239.35 1.823a3.842 3.842 0 002.195 2.193 5.488 5.488 0 001.82.375c.803.035 1.057.046 3.092.046s2.296 0 3.092-.046a5.511 5.511 0 001.821-.35 3.845 3.845 0 002.195-2.193 5.51 5.51 0 00.349-1.822c.035-.802.046-1.056.046-3.092 0-2.035 0-2.294-.046-3.091a5.483 5.483 0 00-.351-1.848zm-1.014 7.944c-.006.48-.093.956-.26 1.406a2.49 2.49 0 01-1.426 1.426 4.155 4.155 0 01-1.392.26c-.791.036-1.015.045-3.045.045-2.031 0-2.239 0-3.045-.046a4.132 4.132 0 01-1.391-.259 2.488 2.488 0 01-1.433-1.426 4.233 4.233 0 01-.259-1.39c-.036-.792-.044-1.016-.044-3.046s0-2.238.044-3.045c.005-.48.093-.956.26-1.406a2.489 2.489 0 011.432-1.427 4.175 4.175 0 011.39-.26c.793-.035 1.016-.045 3.046-.045 2.031 0 2.24 0 3.045.046.476.006.946.093 1.392.26a2.493 2.493 0 011.427 1.426c.163.446.251.916.259 1.39.036.793.045 1.016.045 3.046s0 2.249-.036 3.045h-.01z" fill="#253746"/></svg>