<svg width="17" height="17" fill="none" xmlns="http://www.w3.org/2000/svg"><path d="M8.5 10.167a3.337 3.337 0 003.333-3.334A3.337 3.337 0 008.5 3.5a3.337 3.337 0 00-3.333 3.333A3.337 3.337 0 008.5 10.167zm0-5a1.668 1.668 0 010 3.333c-.92 0-1.667-.747-1.667-1.667 0-.919.748-1.666 1.667-1.666z" fill="#EB0045"/><path d="M8.017 16.679a.832.832 0 00.966 0c.254-.18 6.208-4.479 6.184-9.845A6.674 6.674 0 008.5.167c-3.676 0-6.667 2.99-6.667 6.662-.024 5.371 5.93 9.67 6.184 9.85zM8.5 1.834c2.758 0 5 2.242 5 5.004.018 3.698-3.657 7.019-5 8.108-1.342-1.09-5.017-4.412-5-8.112 0-2.758 2.243-5 5-5z" fill="#EB0045"/></svg>