<svg width="16" height="10" fill="none" xmlns="http://www.w3.org/2000/svg"><path d="M15.184 1.142c.105-.35 0-.605-.496-.605h-1.645c-.418 0-.61.221-.715.464 0 0-.836 2.04-2.021 3.362-.383.385-.557.506-.766.506-.104 0-.255-.121-.255-.47V1.142c0-.419-.121-.605-.47-.605H6.231c-.26 0-.418.194-.418.378 0 .396.593.488.653 1.604v2.42c0 .53-.095.628-.305.628-.557 0-1.913-2.047-2.718-4.39-.157-.455-.315-.64-.735-.64H1.064C.594.538.5.76.5 1.003c0 .437.557 2.597 2.596 5.453 1.359 1.95 3.272 3.008 5.014 3.008 1.045 0 1.174-.235 1.174-.64V7.349c0-.47.1-.564.43-.564.243 0 .662.123 1.637 1.063 1.115 1.115 1.3 1.615 1.926 1.615h1.644c.47 0 .704-.235.569-.698-.148-.462-.68-1.133-1.387-1.927-.384-.453-.957-.94-1.132-1.184-.244-.315-.173-.453 0-.732 0 0 2.004-2.821 2.212-3.78z" fill="#EB0045"/></svg>