<svg width="340" height="97" fill="none" xmlns="http://www.w3.org/2000/svg"><path d="M125.06 59.59V30.34h9.78c3.1 0 5.84.52 8.22 1.56 2.38 1.04 4.25 2.64 5.61 4.8 1.36 2.16 2.04 4.94 2.04 8.33 0 3.28-.68 5.99-2.04 8.16-1.36 2.16-3.24 3.77-5.64 4.82-2.4 1.05-5.15 1.58-8.25 1.58h-9.72zm4.21-3.78h5.44c3.66 0 6.5-.9 8.53-2.7 2.03-1.8 3.05-4.47 3.05-8 0-3.57-.99-6.29-2.96-8.18-1.97-1.89-4.89-2.83-8.75-2.83h-5.31v21.71zm40.17 4.52c-2.11 0-4.06-.4-5.88-1.19-1.81-.79-3.39-1.89-4.74-3.31-1.35-1.42-2.4-3.06-3.16-4.91-.76-1.86-1.14-3.85-1.14-5.99 0-2.13.37-4.13 1.12-5.99.75-1.86 1.8-3.49 3.16-4.89 1.36-1.4 2.94-2.5 4.76-3.29 1.81-.79 3.77-1.18 5.88-1.18s4.06.39 5.88 1.18c1.82.79 3.4 1.89 4.76 3.29 1.36 1.4 2.42 3.03 3.18 4.89.76 1.86 1.14 3.85 1.14 5.99 0 2.13-.38 4.13-1.14 5.99-.76 1.86-1.82 3.49-3.18 4.91a14.619 14.619 0 01-4.76 3.31c-1.82.8-3.78 1.19-5.88 1.19zm0-3.94c2.13 0 3.99-.53 5.57-1.58s2.81-2.45 3.68-4.19c.88-1.74 1.31-3.65 1.31-5.72 0-2.11-.43-4.03-1.29-5.77-.86-1.74-2.08-3.13-3.66-4.17s-3.45-1.56-5.61-1.56c-2.14 0-3.99.52-5.57 1.56s-2.8 2.43-3.66 4.17c-.86 1.74-1.29 3.66-1.29 5.77 0 2.08.43 3.98 1.29 5.72.86 1.74 2.08 3.14 3.66 4.19 1.58 1.05 3.43 1.58 5.57 1.58zm18.24-1.19l2.98-2.72c.56.61 1.2 1.23 1.93 1.84.73.61 1.59 1.13 2.57 1.54.98.41 2.1.61 3.36.61 1.93 0 3.43-.45 4.52-1.34 1.08-.89 1.62-2.07 1.62-3.53 0-1.64-.61-2.85-1.82-3.64s-2.99-1.43-5.33-1.93c-2.49-.53-4.51-1.48-6.07-2.87-1.56-1.39-2.35-3.24-2.35-5.55 0-1.43.37-2.76 1.1-3.97.73-1.21 1.83-2.19 3.29-2.94s3.26-1.12 5.39-1.12c1.9 0 3.47.26 4.72.77 1.24.51 2.21 1.09 2.92 1.73.7.64 1.2 1.17 1.49 1.58l-2.81 2.59c-.23-.29-.63-.67-1.18-1.14-.56-.47-1.27-.88-2.13-1.25-.86-.37-1.92-.55-3.18-.55-1.23 0-2.24.21-3.03.64-.79.42-1.37.95-1.75 1.58-.38.63-.57 1.28-.57 1.95 0 1.43.6 2.51 1.8 3.22 1.2.72 2.91 1.32 5.13 1.82 1.46.32 2.85.83 4.17 1.51 1.32.69 2.39 1.64 3.22 2.85.83 1.21 1.25 2.81 1.25 4.8 0 1.7-.45 3.19-1.36 4.47-.91 1.29-2.13 2.3-3.68 3.05-1.55.75-3.3 1.12-5.26 1.12-1.81 0-3.43-.26-4.85-.79-1.42-.53-2.63-1.19-3.64-2-1.02-.78-1.83-1.57-2.45-2.33zm33.64 4.39V34.02h-10.48v-3.68h25.13v3.68h-10.44v25.57h-4.21zm12.46 0l11.45-29.25h4.3l11.45 29.25h-4.69l-3.03-8.16h-12.02l-3.03 8.16h-4.43zm8.68-11.71h9.52l-4.74-12.85-4.78 12.85zm26.89 11.71l-11.31-29.25h4.69l8.9 24.04 8.9-24.03h4.43L273.65 59.6h-4.3v-.01zm18.99 0V30.34h4.17v13.29l12.24-13.29h4.82l-10.88 11.93 12.19 17.32h-5.04l-10-14.34-3.33 3.6V59.6h-4.17v-.01zm24.25.01l11.45-29.25h4.3l11.45 29.25h-4.69l-3.03-8.16h-12.02l-3.03 8.16h-4.43zm8.68-11.71h9.52l-4.74-12.85-4.78 12.85zm-185 36.95l1.66 1.75c-.63.7-1.39 1.27-2.31 1.71-.92.43-1.98.65-3.19.65-1.51 0-2.82-.33-3.91-.98a6.725 6.725 0 01-2.55-2.66c-.6-1.12-.91-2.38-.91-3.79 0-1.47.32-2.78.95-3.93a7.112 7.112 0 012.63-2.73c1.12-.67 2.4-1.01 3.85-1.01 1.15 0 2.18.21 3.08.63.91.42 1.68 1 2.33 1.72l-1.78 1.72c-.42-.52-.94-.94-1.54-1.24-.6-.3-1.29-.45-2.05-.45-1.01 0-1.86.24-2.57.71-.71.47-1.24 1.1-1.6 1.89a6.03 6.03 0 00-.54 2.54c0 .89.18 1.73.54 2.52.36.8.89 1.44 1.59 1.93.69.49 1.55.74 2.55.74.79 0 1.51-.16 2.16-.47.64-.31 1.18-.72 1.61-1.25zm14.47-10.54h10.15v14.23h-2.72V76.74h-5.02c-.14 2.44-.42 4.54-.83 6.32-.41 1.77-1.05 3.14-1.9 4.1-.86.96-2.02 1.44-3.49 1.44h-.3c-.1 0-.2-.01-.3-.03v-2.39h.15c1.13 0 1.98-.49 2.55-1.48.57-.99.98-2.37 1.21-4.16.23-1.79.4-3.87.5-6.24zm27.71 14.66c-1.27 0-2.41-.29-3.42-.86a7.18 7.18 0 01-2.48-2.33 7.787 7.787 0 01-1.21-3.28h-3.45v6.04h-2.72V74.3h2.72v5.83h3.48c.18-1.19.59-2.26 1.24-3.2.64-.95 1.47-1.7 2.46-2.25 1-.55 2.12-.83 3.37-.83 1.39 0 2.62.34 3.7 1.03s1.93 1.6 2.55 2.73c.62 1.14.94 2.4.94 3.79 0 1.37-.31 2.63-.94 3.78-.63 1.15-1.48 2.07-2.55 2.75-1.07.68-2.3 1.03-3.69 1.03zm-.03-2.36c.93 0 1.72-.25 2.39-.76.67-.5 1.18-1.15 1.54-1.93.36-.79.54-1.61.54-2.48 0-.87-.18-1.7-.54-2.49-.36-.8-.88-1.45-1.56-1.96-.67-.51-1.48-.77-2.4-.77-.91 0-1.69.25-2.36.76-.67.5-1.18 1.15-1.54 1.93-.36.79-.54 1.61-.54 2.48 0 .87.18 1.7.54 2.49.36.8.88 1.45 1.54 1.96.67.51 1.46.77 2.39.77zM197 74.9c1.31 0 2.46.3 3.44.91.99.6 1.76 1.43 2.33 2.48.56 1.05.85 2.23.85 3.54 0 1.35-.3 2.56-.89 3.64a6.562 6.562 0 01-2.49 2.55c-1.07.62-2.32.94-3.75.94-.87 0-1.73-.15-2.58-.44-.86-.29-1.64-.79-2.36-1.48s-1.29-1.65-1.72-2.87c-.43-1.22-.65-2.74-.65-4.58 0-6.57 3.1-10.16 9.31-10.79l3.54-.36.33 2.33-3.6.39c-2.38.26-4.1.89-5.18 1.89-1.08 1-1.7 2.52-1.86 4.58a5.66 5.66 0 012.27-2.02c.92-.47 1.93-.71 3.01-.71zm-.57 11.7c.89 0 1.66-.21 2.33-.63.67-.42 1.18-.99 1.54-1.71.36-.71.54-1.52.54-2.4 0-1.31-.39-2.4-1.18-3.28-.79-.88-1.86-1.31-3.23-1.31-.91 0-1.69.21-2.36.62-.66.41-1.17.97-1.53 1.66-.35.7-.53 1.47-.53 2.31 0 .85.18 1.63.54 2.36.36.73.87 1.3 1.53 1.74.66.42 1.44.64 2.35.64zm17.65 2.36c-1.43 0-2.71-.34-3.84-1.03a7.188 7.188 0 01-2.64-2.75 7.742 7.742 0 01-.95-3.78c0-1.39.32-2.65.95-3.79a7.28 7.28 0 012.64-2.73c1.13-.68 2.41-1.03 3.84-1.03 1.43 0 2.7.34 3.82 1.03 1.12.69 2 1.6 2.64 2.73.64 1.14.97 2.4.97 3.79 0 1.37-.32 2.63-.97 3.78a7.492 7.492 0 01-2.64 2.75c-1.12.68-2.39 1.03-3.82 1.03zm0-2.36c.99 0 1.83-.25 2.52-.76.69-.5 1.23-1.15 1.6-1.95.37-.8.56-1.63.56-2.49 0-.87-.19-1.69-.56-2.48-.37-.79-.91-1.44-1.62-1.95-.71-.51-1.54-.77-2.51-.77-.97 0-1.8.25-2.51.75-.71.5-1.24 1.15-1.62 1.93a5.83 5.83 0 00-.56 2.51c0 .85.19 1.67.57 2.46.38.8.92 1.45 1.62 1.96.71.53 1.54.79 2.51.79zm11.09 1.94V74.3h7.43c1.49 0 2.61.34 3.35 1.01.75.67 1.12 1.53 1.12 2.55 0 .81-.22 1.49-.65 2.05-.43.56-.97.95-1.62 1.15.79.18 1.47.55 2.05 1.1.58.55.88 1.37.88 2.46 0 .93-.23 1.68-.68 2.25-.45.57-1.05.99-1.8 1.25s-1.55.39-2.42.39l-7.66.03zm2.63-12.12v3.84h4.2c.73 0 1.3-.16 1.74-.48.43-.32.65-.83.65-1.51s-.21-1.16-.63-1.44c-.42-.27-.95-.41-1.57-.41h-4.39zm0 5.89v4.11h4.68c.64 0 1.23-.14 1.75-.41.52-.27.79-.82.79-1.65 0-.87-.31-1.42-.94-1.68-.63-.25-1.45-.38-2.48-.38l-3.8.01zm13.56-8.01h2.72v4.78h4.05c1.61 0 2.88.42 3.81 1.27.93.85 1.39 1.98 1.39 3.42 0 1.47-.49 2.63-1.47 3.49-.98.86-2.25 1.28-3.82 1.28h-6.68V74.3zm2.72 6.92v5.17h3.63c1.01 0 1.75-.23 2.24-.68.48-.45.72-1.08.72-1.89 0-.83-.25-1.47-.76-1.92-.5-.45-1.24-.68-2.21-.68h-3.62zm25.9 7.74c-1.27 0-2.41-.29-3.42-.86a7.18 7.18 0 01-2.48-2.33 7.787 7.787 0 01-1.21-3.28h-3.45v6.04h-2.72V74.3h2.72v5.83h3.48c.18-1.19.59-2.26 1.24-3.2.64-.95 1.47-1.7 2.46-2.25 1-.55 2.12-.83 3.37-.83 1.39 0 2.62.34 3.7 1.03s1.93 1.6 2.55 2.73c.62 1.14.94 2.4.94 3.79 0 1.37-.31 2.63-.94 3.78-.63 1.15-1.48 2.07-2.55 2.75-1.07.69-2.3 1.03-3.69 1.03zm-.03-2.36c.93 0 1.72-.25 2.39-.76.67-.5 1.18-1.15 1.54-1.93.36-.79.54-1.61.54-2.48 0-.87-.18-1.7-.54-2.49-.36-.8-.88-1.45-1.56-1.96-.67-.51-1.48-.77-2.4-.77-.91 0-1.69.25-2.36.76-.67.5-1.18 1.15-1.54 1.93-.36.79-.54 1.61-.54 2.48 0 .87.18 1.7.54 2.49.36.8.88 1.45 1.54 1.96.67.52 1.46.77 2.39.77z" fill="#253746"/><path d="M36.34 24.56c1.79-6.7-.81-25.81-17.63-22.8C8.88 3.52.39 18.95.9 34.11c.27 8.21 7.6 21.01 17.2 31.37 15.16 16.36 30.18 27.85 29.75 22.36-.73-9.39-5.99-51.19-14.44-51.06-4.44.07-10.21 4.75-11.83 8.1-1.15 2.38 1.66 1.45 5.93 3.67 7.44 3.86 10.69 14.97 10.21 16.93-.92 3.71-12.49-3.28-18.71-17.79-6.46-15.05-1.85-25.99 2.13-26.06 3.15-.05 5.54 5.5 6.15 9.49.79 5.05 7.3-.02 9.05-6.56z" fill="#EB0045"/><path d="M35.28 3.37c-1.33.92 2.49 3.04 6.22 24.45 1.99 11.42 5.05 29.91 7.11 47.62 1.12 9.67 3.18 18.69 4.32 19.92 1.3 1.39 2.08 1.97 4.04 1.18 2.92-1.17 8.64-5.07 13.69-9.17 7.87-6.39 10.91-9.05 11.22-11.8.32-2.81-9.94-10.48-14.59-3.67-5.34 7.82-11.3 18.5-12.72.14-1.65-21.22 1.81-49.35-.6-54.99C49.23 5.95 37.95 1.52 35.28 3.37z" fill="#EB0045"/><path d="M72.84 47.84c.14 5.94-2.8 8.86-6.17 8.6-5.27-.42-2.34-30.61-.67-31.89 1.97-1.51 6.7 17.44 6.84 23.29zM63.25 9.47c-1.19 1.11-4.49 5.21-5.04 7.89-2.25 10.96-1.95 43.95-1.31 53.24.3 4.32 1.41 7.14 3.78 5.56 3.52-2.34 4.62-9.47 11.38-10.34 4.11-.53 10.35 5.32 12.11 6.79 2.13 1.78 7.34-2.32 6.31-8.78C87.71 46.26 69.57 3.57 63.25 9.47z" fill="#EB0045"/><path d="M70.92 10.4c21.57 33.34 18.45 53.1 24.17 52.81 1.92-.1 18.46-24.48 14.86-45.93-.97-5.78-8.42-11.61-13.04-13.81-4.65-2.22-6.97-2.19-5.57.6 9.28 18.47 5.53 40.36 2.65 36.32-3.39-4.75-5.61-21.45-7.16-32.31-.46-3.22-.8-6.02-1.48-6.91-.96-1.25-7.4-.2-12.01 2.75-4.82 3.08-3.96 4.1-2.42 6.48z" fill="#EB0045"/></svg>