<svg width="174" height="50" viewBox="0 0 174 50" fill="none" xmlns="http://www.w3.org/2000/svg">
<path d="M63.4517 30.1151V15.1694H68.4489C70.0328 15.1694 71.4329 15.4351 72.649 15.9665C73.8651 16.4979 74.8206 17.3155 75.5155 18.4192C76.2104 19.5228 76.5578 20.9433 76.5578 22.6755C76.5578 24.3514 76.2104 25.7361 75.5155 26.8449C74.8206 27.9486 73.86 28.7712 72.6336 29.3077C71.4073 29.8443 70.0022 30.1151 68.4182 30.1151H63.4517ZM65.6028 28.1836H68.3824C70.2526 28.1836 71.7037 27.7238 72.7409 26.804C73.7782 25.8843 74.2994 24.52 74.2994 22.7163C74.2994 20.8922 73.7935 19.5024 72.7869 18.5367C71.7803 17.571 70.2883 17.0907 68.316 17.0907H65.6028V28.1836Z" fill="white"/>
<path d="M86.1279 30.4933C85.0498 30.4933 84.0534 30.2889 83.1235 29.8853C82.1986 29.4816 81.3913 28.9196 80.7015 28.194C80.0117 27.4684 79.4752 26.6304 79.0869 25.6852C78.6986 24.7348 78.5044 23.718 78.5044 22.6245C78.5044 21.5362 78.6934 20.5142 79.0767 19.5639C79.4599 18.6135 79.9964 17.7806 80.6913 17.0652C81.3862 16.3499 82.1935 15.7878 83.1235 15.3842C84.0483 14.9805 85.0498 14.7812 86.1279 14.7812C87.2061 14.7812 88.2024 14.9805 89.1324 15.3842C90.0623 15.7878 90.8697 16.3499 91.5646 17.0652C92.2595 17.7806 92.8011 18.6135 93.1894 19.5639C93.5778 20.5142 93.7719 21.5311 93.7719 22.6245C93.7719 23.7129 93.5778 24.7348 93.1894 25.6852C92.8011 26.6356 92.2595 27.4684 91.5646 28.194C90.8697 28.9196 90.0572 29.4816 89.1324 29.8853C88.2024 30.294 87.201 30.4933 86.1279 30.4933ZM86.1279 28.4801C87.2163 28.4801 88.1667 28.2093 88.974 27.6728C89.7813 27.1363 90.4098 26.421 90.8543 25.5319C91.304 24.6428 91.5237 23.6669 91.5237 22.6092C91.5237 21.5311 91.304 20.55 90.8646 19.6609C90.4251 18.7719 89.8018 18.0616 88.9944 17.5302C88.1871 16.9988 87.2316 16.7331 86.1279 16.7331C85.0345 16.7331 84.0892 16.9988 83.2819 17.5302C82.4746 18.0616 81.8512 18.7719 81.4118 19.6609C80.9723 20.55 80.7526 21.5311 80.7526 22.6092C80.7526 23.672 80.9723 24.6428 81.4118 25.5319C81.8512 26.421 82.4746 27.1363 83.2819 27.6728C84.0892 28.2093 85.0345 28.4801 86.1279 28.4801Z" fill="white"/>
<path d="M95.4482 27.8721L96.9709 26.4823C97.2571 26.794 97.5841 27.1108 97.9571 27.4224C98.3301 27.7341 98.7695 27.9998 99.2702 28.2093C99.771 28.4188 100.343 28.521 100.987 28.521C101.973 28.521 102.74 28.2911 103.297 27.8363C103.848 27.3816 104.124 26.7786 104.124 26.0326C104.124 25.1946 103.813 24.5764 103.194 24.1727C102.576 23.7691 101.667 23.442 100.471 23.1866C99.1987 22.9158 98.1666 22.4303 97.3695 21.7201C96.5724 21.0099 96.1687 20.0646 96.1687 18.8843C96.1687 18.1536 96.3578 17.474 96.7308 16.8558C97.1038 16.2375 97.6658 15.7367 98.4118 15.3535C99.1578 14.9703 100.078 14.7812 101.166 14.7812C102.137 14.7812 102.939 14.9141 103.578 15.1747C104.211 15.4353 104.707 15.7316 105.07 16.0587C105.427 16.3857 105.683 16.6565 105.831 16.866L104.395 18.1894C104.278 18.0412 104.073 17.847 103.792 17.6069C103.506 17.3667 103.143 17.1572 102.704 16.9682C102.264 16.7791 101.723 16.6871 101.079 16.6871C100.451 16.6871 99.9345 16.7944 99.5308 17.0141C99.1272 17.2288 98.8308 17.4996 98.6367 17.8215C98.4425 18.1434 98.3454 18.4755 98.3454 18.8178C98.3454 19.5485 98.652 20.1004 99.2651 20.4631C99.8783 20.831 100.752 21.1376 101.886 21.3931C102.632 21.5566 103.343 21.8172 104.017 22.1646C104.692 22.5172 105.238 23.0026 105.662 23.6209C106.086 24.2391 106.301 25.0567 106.301 26.0735C106.301 26.9421 106.071 27.7035 105.606 28.3575C105.141 29.0166 104.518 29.5327 103.726 29.9159C102.934 30.2992 102.04 30.4882 101.038 30.4882C100.113 30.4882 99.2856 30.3554 98.56 30.0845C97.8344 29.8137 97.2162 29.4765 96.7001 29.0626C96.1789 28.6641 95.765 28.2604 95.4482 27.8721Z" fill="white"/>
<path d="M112.637 30.1151V17.0498H107.282V15.1694H120.123V17.0498H114.788V30.1151H112.637Z" fill="white"/>
<path d="M119.003 30.1151L124.854 15.1694H127.051L132.902 30.1151H130.505L128.957 25.9456H122.815L121.267 30.1151H119.003ZM123.439 24.1317H128.303L125.881 17.5658L123.439 24.1317Z" fill="white"/>
<path d="M137.179 30.1151L131.4 15.1694H133.796L138.344 27.453L142.891 15.1745H145.155L139.376 30.1202H137.179V30.1151Z" fill="white"/>
<path d="M146.882 30.1151V15.1694H149.013V21.9601L155.267 15.1694H157.73L152.17 21.2652L158.399 30.1151H155.824L150.714 22.7879L149.013 24.6273V30.1202H146.882V30.1151Z" fill="white"/>
<path d="M159.272 30.1204L165.123 15.1748H167.32L173.171 30.1204H170.774L169.226 25.951H163.084L161.536 30.1204H159.272ZM163.708 24.1371H168.572L166.15 17.5712L163.708 24.1371Z" fill="white"/>
<path d="M69.1795 43.0163L70.0277 43.9105C69.7058 44.2682 69.3175 44.5595 68.8474 44.7843C68.3773 45.004 67.8357 45.1164 67.2174 45.1164C66.4459 45.1164 65.7765 44.9478 65.2196 44.6157C64.6575 44.2835 64.2232 43.8288 63.9166 43.2565C63.6101 42.6842 63.4517 42.0404 63.4517 41.32C63.4517 40.5688 63.6152 39.8995 63.9371 39.3119C64.259 38.7243 64.7086 38.2593 65.2809 37.9169C65.8532 37.5746 66.5072 37.4009 67.2481 37.4009C67.8357 37.4009 68.362 37.5082 68.8219 37.7228C69.2868 37.9374 69.6803 38.2337 70.0124 38.6016L69.1029 39.4805C68.8883 39.2148 68.6226 39.0002 68.316 38.8469C68.0094 38.6936 67.6569 38.617 67.2685 38.617C66.7525 38.617 66.3182 38.7396 65.9554 38.9797C65.5926 39.2199 65.3218 39.5418 65.1378 39.9455C64.9539 40.3491 64.8619 40.7783 64.8619 41.2433C64.8619 41.6981 64.9539 42.1273 65.1378 42.5309C65.3218 42.9397 65.5926 43.2667 65.9503 43.5171C66.3028 43.7675 66.7423 43.8952 67.2532 43.8952C67.6569 43.8952 68.0248 43.8134 68.3569 43.655C68.6839 43.4966 68.9598 43.2872 69.1795 43.0163Z" fill="white"/>
<path d="M76.5732 37.6304H81.7594V44.9014H80.3696V38.8771H77.8046C77.733 40.1239 77.59 41.1969 77.3805 42.1064C77.171 43.0108 76.844 43.7108 76.4097 44.2013C75.9702 44.6919 75.3775 44.9371 74.6264 44.9371C74.5753 44.9371 74.5242 44.9371 74.4731 44.9371C74.422 44.9371 74.3709 44.932 74.3198 44.9218V43.7006H74.3965C74.9739 43.7006 75.4082 43.4502 75.6994 42.9444C75.9907 42.4385 76.2002 41.7334 76.3177 40.8188C76.4352 39.9041 76.5221 38.8414 76.5732 37.6304Z" fill="white"/>
<path d="M90.7319 45.1215C90.0829 45.1215 89.5004 44.9733 88.9844 44.6821C88.4683 44.3908 88.0493 43.9923 87.7172 43.4915C87.3902 42.9908 87.1807 42.4339 87.0989 41.8156H85.3361V44.9018H83.9463V37.6308H85.3361V40.6097H87.1142C87.2062 40.0017 87.4157 39.4549 87.7478 38.9746C88.0749 38.4892 88.499 38.106 89.0048 37.825C89.5158 37.5439 90.0881 37.4009 90.7268 37.4009C91.437 37.4009 92.0655 37.5746 92.6173 37.9272C93.1691 38.2797 93.6035 38.7447 93.9203 39.3221C94.2371 39.9046 94.4006 40.5484 94.4006 41.2586C94.4006 41.9587 94.2422 42.6025 93.9203 43.1901C93.5984 43.7777 93.164 44.2478 92.6173 44.5952C92.0706 44.9427 91.4421 45.1215 90.7319 45.1215ZM90.7165 43.9156C91.1917 43.9156 91.5954 43.7879 91.9377 43.5273C92.2801 43.2718 92.5407 42.9397 92.7246 42.5412C92.9086 42.1375 93.0005 41.7185 93.0005 41.274C93.0005 40.8294 92.9086 40.4053 92.7246 40.0017C92.5407 39.5929 92.275 39.2608 91.9275 39.0002C91.5852 38.7396 91.1713 38.6067 90.7012 38.6067C90.2362 38.6067 89.8377 38.7345 89.4953 38.9951C89.153 39.2506 88.8924 39.5827 88.7085 39.9812C88.5245 40.3849 88.4325 40.8039 88.4325 41.2484C88.4325 41.693 88.5245 42.117 88.7085 42.5207C88.8924 42.9295 89.1581 43.2616 89.4953 43.5222C89.8377 43.7828 90.2413 43.9156 90.7165 43.9156Z" fill="white"/>
<path d="M100.21 37.9375C100.879 37.9375 101.467 38.0908 101.968 38.4025C102.474 38.7091 102.867 39.1332 103.158 39.6697C103.444 40.2062 103.593 40.8091 103.593 41.4785C103.593 42.1683 103.439 42.7866 103.138 43.3384C102.836 43.8902 102.407 44.3246 101.866 44.6413C101.319 44.9581 100.68 45.1217 99.9495 45.1217C99.5049 45.1217 99.0655 45.045 98.6312 44.8968C98.1918 44.7487 97.7932 44.4932 97.4253 44.1406C97.0574 43.788 96.7662 43.2975 96.5465 42.6741C96.3268 42.0508 96.2144 41.2741 96.2144 40.3339C96.2144 36.9769 97.7983 35.1426 100.971 34.8207L102.78 34.6367L102.949 35.8273L101.109 36.0265C99.8933 36.1594 99.0144 36.4813 98.4626 36.9923C97.9107 37.5032 97.594 38.2799 97.5122 39.3325C97.8086 38.8777 98.1969 38.5354 98.6721 38.3003C99.1422 38.0602 99.6582 37.9375 100.21 37.9375ZM99.9188 43.9158C100.374 43.9158 100.767 43.8085 101.109 43.5939C101.452 43.3793 101.712 43.088 101.896 42.7201C102.08 42.3573 102.172 41.9435 102.172 41.4938C102.172 40.8245 101.973 40.2675 101.569 39.8179C101.166 39.3682 100.619 39.1485 99.9188 39.1485C99.4539 39.1485 99.0553 39.2558 98.713 39.4653C98.3757 39.6748 98.1151 39.9609 97.9312 40.3135C97.7524 40.6712 97.6604 41.0646 97.6604 41.4938C97.6604 41.9281 97.7523 42.3267 97.9363 42.6997C98.1202 43.0727 98.3808 43.3639 98.7181 43.5888C99.0553 43.8034 99.4539 43.9158 99.9188 43.9158Z" fill="white"/>
<path d="M108.938 45.1215C108.207 45.1215 107.553 44.9478 106.975 44.5952C106.398 44.2478 105.948 43.7777 105.627 43.1901C105.305 42.6025 105.141 41.9587 105.141 41.2586C105.141 40.5484 105.305 39.9046 105.627 39.3221C105.948 38.7396 106.403 38.2746 106.975 37.9272C107.553 37.5797 108.207 37.4009 108.938 37.4009C109.668 37.4009 110.317 37.5746 110.889 37.9272C111.462 38.2797 111.911 38.7447 112.238 39.3221C112.565 39.9046 112.734 40.5484 112.734 41.2586C112.734 41.9587 112.571 42.6025 112.238 43.1901C111.906 43.7777 111.457 44.2478 110.889 44.5952C110.317 44.9427 109.668 45.1215 108.938 45.1215ZM108.938 43.9156C109.443 43.9156 109.873 43.7879 110.225 43.5273C110.578 43.2718 110.854 42.9397 111.043 42.5309C111.232 42.1222 111.329 41.6981 111.329 41.2586C111.329 40.8141 111.232 40.3951 111.043 39.9915C110.854 39.5878 110.578 39.2557 110.215 38.9951C109.852 38.7345 109.428 38.6016 108.932 38.6016C108.437 38.6016 108.013 38.7294 107.65 38.9849C107.287 39.2403 107.016 39.5725 106.822 39.971C106.633 40.3747 106.536 40.7988 106.536 41.2535C106.536 41.6878 106.633 42.1068 106.827 42.5105C107.021 42.9193 107.297 43.2514 107.655 43.512C108.018 43.7828 108.442 43.9156 108.938 43.9156Z" fill="white"/>
<path d="M114.604 44.9065V37.6304H118.4C119.162 37.6304 119.734 37.8041 120.112 38.1464C120.495 38.4888 120.684 38.9282 120.684 39.4494C120.684 39.8633 120.572 40.2107 120.352 40.4969C120.133 40.783 119.857 40.9823 119.525 41.0845C119.928 41.1764 120.276 41.3655 120.572 41.6465C120.868 41.9276 121.022 42.3465 121.022 42.9035C121.022 43.3787 120.904 43.7619 120.674 44.0532C120.444 44.3444 120.138 44.559 119.754 44.6919C119.371 44.8247 118.962 44.8911 118.518 44.8911L114.604 44.9065ZM115.948 38.7136V40.6757H118.094C118.467 40.6757 118.758 40.5939 118.983 40.4304C119.203 40.2669 119.315 40.0063 119.315 39.6589C119.315 39.3114 119.208 39.0662 118.993 38.9231C118.779 38.7851 118.508 38.7136 118.191 38.7136H115.948ZM115.948 41.7232V43.8232H118.339C118.666 43.8232 118.968 43.7517 119.233 43.6137C119.499 43.4758 119.637 43.1947 119.637 42.7706C119.637 42.3261 119.479 42.0451 119.157 41.9122C118.835 41.7845 118.416 41.7181 117.889 41.7181L115.948 41.7232Z" fill="white"/>
<path d="M122.876 37.6304H124.266V40.0728H126.336C127.158 40.0728 127.807 40.2874 128.282 40.7217C128.758 41.156 128.993 41.7334 128.993 42.4692C128.993 43.2203 128.742 43.813 128.242 44.2524C127.741 44.6919 127.092 44.9065 126.29 44.9065H122.876V37.6304ZM124.266 41.1662V43.8079H126.121C126.637 43.8079 127.015 43.6904 127.266 43.4604C127.511 43.2305 127.634 42.9086 127.634 42.4947C127.634 42.0706 127.506 41.7436 127.245 41.5137C126.99 41.2837 126.612 41.1662 126.116 41.1662H124.266Z" fill="white"/>
<path d="M137.5 45.1215C136.851 45.1215 136.269 44.9733 135.753 44.6821C135.237 44.3908 134.818 43.9923 134.486 43.4915C134.159 42.9908 133.949 42.4339 133.867 41.8156H132.105V44.9018H130.715V37.6308H132.105V40.6097H133.883C133.975 40.0017 134.184 39.4549 134.516 38.9746C134.843 38.4892 135.268 38.106 135.773 37.825C136.284 37.5439 136.857 37.4009 137.495 37.4009C138.206 37.4009 138.834 37.5746 139.386 37.9272C139.938 38.2797 140.372 38.7447 140.689 39.3221C141.006 39.9046 141.169 40.5484 141.169 41.2586C141.169 41.9587 141.011 42.6025 140.689 43.1901C140.367 43.7777 139.933 44.2478 139.386 44.5952C138.839 44.9478 138.211 45.1215 137.5 45.1215ZM137.485 43.9156C137.96 43.9156 138.364 43.7879 138.706 43.5273C139.049 43.2718 139.309 42.9397 139.493 42.5412C139.677 42.1375 139.769 41.7185 139.769 41.274C139.769 40.8294 139.677 40.4053 139.493 40.0017C139.309 39.5929 139.044 39.2608 138.696 39.0002C138.354 38.7396 137.94 38.6067 137.47 38.6067C137.005 38.6067 136.606 38.7345 136.264 38.9951C135.922 39.2506 135.661 39.5827 135.477 39.9812C135.293 40.3849 135.201 40.8039 135.201 41.2484C135.201 41.693 135.293 42.117 135.477 42.5207C135.661 42.9295 135.927 43.2616 136.264 43.5222C136.606 43.7879 137.01 43.9156 137.485 43.9156Z" fill="white"/>
<path d="M18.1196 12.2163C19.0343 8.79282 17.7058 -0.971658 9.11139 0.566337C4.08864 1.46563 -0.249425 9.34977 0.0111658 17.0959C0.149125 21.2909 3.89447 27.8313 8.7997 33.1248C16.5459 41.4841 24.2205 47.3551 24.0008 44.5499C23.6278 39.752 20.9402 18.3938 16.6225 18.4602C14.3539 18.496 11.4056 20.8873 10.5779 22.599C9.99025 23.8151 11.426 23.3399 13.6079 24.4742C17.4094 26.4465 19.07 32.1233 18.8248 33.1248C18.3547 35.0205 12.4429 31.4489 9.26468 24.0348C5.96387 16.3448 8.3194 10.7549 10.353 10.7191C11.9626 10.6936 13.1838 13.5294 13.4954 15.5682C13.8991 18.1485 17.2255 15.558 18.1196 12.2163Z" fill="#EB0045"/>
<path d="M17.578 1.38839C16.8984 1.85848 18.8503 2.94172 20.7562 13.8814C21.773 19.7166 23.3365 29.1643 24.3891 38.2134C24.9614 43.1544 26.014 47.7633 26.5965 48.3918C27.2607 49.102 27.6593 49.3983 28.6608 48.9947C30.1528 48.3969 33.0755 46.4041 35.6558 44.3092C39.6771 41.0441 41.2304 39.685 41.3888 38.2798C41.5523 36.844 36.3098 32.9249 33.9339 36.4046C31.2053 40.4003 28.16 45.8574 27.4344 36.4761C26.5914 25.6335 28.3593 11.2602 27.1279 8.37835C24.7059 2.70667 18.9423 0.443114 17.578 1.38839Z" fill="#EB0045"/>
<path d="M36.7697 24.1114C36.8413 27.1465 35.339 28.6385 33.6171 28.5056C30.9243 28.291 32.4215 12.8651 33.2748 12.2111C34.2814 11.4395 36.6982 21.1222 36.7697 24.1114ZM31.8696 4.50578C31.2616 5.07295 29.5754 7.16789 29.2944 8.53727C28.1447 14.1374 28.298 30.994 28.625 35.7409C28.7783 37.9482 29.3455 39.3891 30.5564 38.5818C32.355 37.3862 32.9171 33.743 36.3712 33.2985C38.4712 33.0277 41.6596 36.0168 42.5589 36.7679C43.6473 37.6774 46.3094 35.5825 45.7831 32.2817C44.3677 23.3041 35.0989 1.49111 31.8696 4.50578Z" fill="#EB0045"/>
<path d="M35.7888 4.98077C46.8102 22.0162 45.216 32.1128 48.1387 31.9647C49.1198 31.9136 57.5711 19.4563 55.7316 8.49619C55.236 5.54283 51.4293 2.56392 49.0687 1.43981C46.6927 0.305473 45.5073 0.320801 46.2226 1.74638C50.9643 11.1838 49.0482 22.3688 47.5767 20.3045C45.8445 17.8774 44.7102 9.34439 43.9182 3.79534C43.6831 2.15004 43.5094 0.71935 43.162 0.264594C42.6714 -0.374108 39.3808 0.162402 37.0253 1.66974C34.5625 3.2435 35.0019 3.76468 35.7888 4.98077Z" fill="#EB0045"/>
</svg>
