<svg width="69" height="61" fill="none" xmlns="http://www.w3.org/2000/svg"><path d="M22.14 15.316c1.118-4.182-.505-16.11-11.007-14.23C4.996 2.183-.305 11.813.013 21.275c.17 5.124 4.746 13.113 10.74 19.579 9.464 10.21 18.842 17.382 18.574 13.955-.456-5.86-3.74-31.949-9.016-31.868-2.772.044-6.374 2.965-7.386 5.056-.718 1.485 1.036.905 3.703 2.29 4.645 2.41 6.674 9.344 6.374 10.567-.574 2.315-7.798-2.047-11.681-11.103-4.034-9.393-1.155-16.221 1.33-16.265 1.966-.031 3.458 3.432 3.84 5.923.492 3.152 4.557-.013 5.65-4.095z" fill="#fff"/><path d="M21.479 2.09c-.83.574 1.554 1.898 3.883 15.26 1.243 7.128 3.153 18.668 4.44 29.721.699 6.036 1.985 11.665 2.697 12.433.811.867 1.298 1.23 2.522.736 1.823-.73 5.394-3.164 8.547-5.723 4.914-3.988 6.812-5.648 7.005-7.365.2-1.753-6.206-6.54-9.109-2.29-3.334 4.88-7.055 11.546-7.942.087-1.03-13.244 1.13-30.8-.374-34.32C30.188 3.7 23.146.935 21.478 2.09z" fill="#fff"/><path d="M44.929 29.845c.087 3.707-1.748 5.53-3.852 5.367-3.29-.262-1.461-19.104-.419-19.903 1.23-.942 4.184 10.885 4.27 14.536zM38.94 5.897c-.742.693-2.803 3.252-3.146 4.925-1.405 6.84-1.218 27.43-.818 33.228.187 2.696.88 4.456 2.36 3.47 2.198-1.46 2.884-5.91 7.105-6.453 2.566-.331 6.462 3.32 7.56 4.238 1.33 1.11 4.584-1.448 3.94-5.48-1.729-10.966-13.055-37.61-17-33.928z" fill="#fff"/><path d="M43.73 6.478c13.468 20.808 11.52 33.141 15.09 32.96 1.2-.062 11.526-15.279 9.279-28.666-.606-3.608-5.257-7.246-8.142-8.62-2.903-1.385-4.352-1.366-3.477.375 5.794 11.528 3.452 25.19 1.654 22.668-2.116-2.964-3.502-13.387-4.47-20.165-.287-2.01-.5-3.757-.924-4.313-.6-.78-4.62-.125-7.499 1.717-3.009 1.922-2.472 2.558-1.51 4.044z" fill="#fff"/></svg>