<svg width="208" height="256" viewBox="0 0 208 256" fill="none" xmlns="http://www.w3.org/2000/svg">
<path d="M5.63623 228.298V201.398H14.6362C17.5362 201.398 20.0362 201.898 22.2362 202.798C24.4362 203.798 26.1362 205.198 27.4362 207.198C28.7362 209.198 29.3362 211.698 29.3362 214.898C29.3362 217.898 28.7362 220.398 27.4362 222.398C26.1362 224.398 24.4362 225.898 22.2362 226.798C20.0362 227.698 17.5362 228.298 14.6362 228.298H5.63623ZM9.53623 224.798H14.5362C17.9362 224.798 20.5362 223.998 22.4362 222.298C24.3362 220.598 25.2362 218.198 25.2362 214.898C25.2362 211.598 24.3362 209.098 22.5362 207.398C20.7362 205.698 18.0362 204.798 14.5362 204.798H9.53623V224.798Z" fill="#f7f7ff"/>
<path d="M46.4362 228.999C44.5362 228.999 42.7362 228.599 41.0362 227.899C39.3362 227.199 37.9362 226.199 36.6362 224.899C35.4362 223.599 34.4362 222.099 33.7362 220.399C33.0362 218.699 32.6362 216.899 32.6362 214.899C32.6362 212.899 32.9362 211.099 33.6362 209.399C34.3362 207.699 35.3362 206.199 36.5362 204.899C37.8362 203.599 39.2362 202.599 40.9362 201.899C42.6362 201.199 44.4362 200.799 46.3362 200.799C48.2362 200.799 50.0362 201.199 51.7362 201.899C53.4362 202.599 54.8362 203.599 56.1362 204.899C57.4362 206.199 58.3362 207.699 59.0362 209.399C59.7362 211.099 60.0362 212.899 60.0362 214.899C60.0362 216.899 59.7362 218.699 59.0362 220.399C58.3362 222.099 57.3362 223.599 56.1362 224.899C54.8362 226.199 53.4362 227.199 51.7362 227.899C50.2362 228.599 48.4362 228.999 46.4362 228.999ZM46.4362 225.299C48.4362 225.299 50.1362 224.799 51.5362 223.799C53.0362 222.799 54.1362 221.499 54.9362 219.899C55.7362 218.299 56.1362 216.499 56.1362 214.599C56.1362 212.699 55.7362 210.899 54.9362 209.299C54.1362 207.699 53.0362 206.399 51.5362 205.499C50.0362 204.499 48.3362 204.099 46.3362 204.099C44.3362 204.099 42.6362 204.599 41.2362 205.499C39.7362 206.499 38.6362 207.699 37.8362 209.299C37.0362 210.899 36.6362 212.699 36.6362 214.599C36.6362 216.499 37.0362 218.299 37.8362 219.899C38.6362 221.499 39.7362 222.799 41.2362 223.799C42.7362 224.899 44.5362 225.299 46.4362 225.299Z" fill="#f7f7ff"/>
<path d="M63.2363 224.298L65.9363 221.798C66.4363 222.398 67.0363 222.898 67.7363 223.498C68.4363 224.098 69.2363 224.498 70.1363 224.898C71.0363 225.298 72.0363 225.498 73.2363 225.498C75.0363 225.498 76.4363 225.098 77.4363 224.298C78.4363 223.498 78.9363 222.398 78.9363 221.098C78.9363 219.598 78.3363 218.498 77.2363 217.798C76.1363 217.098 74.4363 216.498 72.3363 215.998C70.0363 215.498 68.2363 214.598 66.7363 213.398C65.3363 212.098 64.5363 210.398 64.5363 208.298C64.5363 206.998 64.8363 205.798 65.5363 204.598C66.2363 203.498 67.2363 202.598 68.5363 201.898C69.8363 201.198 71.5363 200.898 73.5363 200.898C75.3363 200.898 76.7363 201.098 77.8363 201.598C78.9363 202.098 79.8363 202.598 80.5363 203.198C81.1363 203.798 81.6363 204.298 81.9363 204.698L79.3363 207.098C79.1363 206.798 78.7363 206.498 78.2363 205.998C77.7363 205.598 77.0363 205.198 76.2363 204.898C75.4363 204.598 74.4363 204.398 73.3363 204.398C72.2363 204.398 71.2363 204.598 70.5363 204.998C69.8363 205.398 69.2363 205.898 68.9363 206.498C68.6363 207.098 68.4363 207.698 68.4363 208.298C68.4363 209.598 68.9363 210.598 70.1363 211.298C71.2363 211.998 72.8363 212.498 74.8363 212.998C76.1363 213.298 77.4363 213.798 78.6363 214.398C79.8363 214.998 80.8363 215.898 81.6363 216.998C82.4363 218.098 82.8363 219.598 82.8363 221.398C82.8363 222.998 82.4363 224.298 81.5363 225.498C80.7363 226.698 79.5363 227.598 78.1363 228.298C76.7363 228.998 75.1363 229.298 73.3363 229.298C71.6363 229.298 70.1363 229.098 68.8363 228.598C67.5363 228.098 66.4363 227.498 65.4363 226.798C64.5363 225.698 63.8363 224.998 63.2363 224.298Z" fill="#f7f7ff"/>
<path d="M94.2361 228.298V204.798H84.5361V201.398H107.636V204.798H98.0361V228.298H94.2361Z" fill="#f7f7ff"/>
<path d="M105.636 228.298L116.136 201.398H120.136L130.636 228.298H126.336L123.536 220.798H112.436L109.636 228.298H105.636ZM113.636 217.498H122.436L118.036 205.698L113.636 217.498Z" fill="#f7f7ff"/>
<path d="M138.336 228.298L127.936 201.398H132.236L140.436 223.498L148.636 201.398H152.736L142.336 228.298H138.336Z" fill="#f7f7ff"/>
<path d="M155.836 228.298V201.398H159.636V213.598L170.936 201.398H175.336L165.336 212.398L176.636 228.298H171.936L162.736 215.098L159.636 218.398V228.298H155.836Z" fill="#f7f7ff"/>
<path d="M178.136 228.298L188.636 201.398H192.636L203.136 228.298H198.836L196.036 220.798H185.036L182.236 228.298H178.136ZM186.136 217.498H194.936L190.536 205.698L186.136 217.498Z" fill="#f7f7ff"/>
<path d="M43.8362 251.499L45.3362 253.099C44.7362 253.699 44.0362 254.299 43.2362 254.699C42.4362 255.099 41.4362 255.299 40.3362 255.299C38.9362 255.299 37.7362 254.999 36.7362 254.399C35.7362 253.799 34.9362 252.999 34.4362 251.999C33.8362 250.999 33.6362 249.799 33.6362 248.499C33.6362 247.099 33.9362 245.899 34.5362 244.899C35.1362 243.799 35.9362 242.999 36.9362 242.399C37.9362 241.799 39.1362 241.499 40.4362 241.499C41.5362 241.499 42.4362 241.699 43.2362 242.099C44.0362 242.499 44.7362 242.999 45.3362 243.699L43.7362 245.299C43.3362 244.799 42.8362 244.399 42.3362 244.199C41.7362 243.899 41.1362 243.799 40.4362 243.799C39.5362 243.799 38.7362 243.999 38.0362 244.499C37.4362 244.899 36.9362 245.499 36.5362 246.199C36.2362 246.899 36.0362 247.699 36.0362 248.499C36.0362 249.299 36.2362 250.099 36.5362 250.799C36.8362 251.499 37.3362 252.099 38.0362 252.599C38.6362 253.099 39.4362 253.299 40.3362 253.299C41.0362 253.299 41.7362 253.199 42.3362 252.899C42.9362 252.399 43.4362 251.999 43.8362 251.499Z" fill="#f7f7ff"/>
<path d="M57.136 241.799H66.436V254.899H63.936V244.099H59.336C59.236 246.299 58.936 248.299 58.536 249.899C58.136 251.499 57.536 252.799 56.736 253.699C55.936 254.599 54.836 254.999 53.536 254.999H53.236C53.136 254.999 53.036 254.999 52.936 254.999V252.799H53.036C54.036 252.799 54.836 252.299 55.336 251.399C55.836 250.499 56.236 249.199 56.436 247.599C56.936 245.899 57.036 243.999 57.136 241.799Z" fill="#f7f7ff"/>
<path d="M82.636 255.299C81.436 255.299 80.436 254.999 79.536 254.499C78.636 253.999 77.836 253.299 77.236 252.399C76.636 251.499 76.236 250.499 76.136 249.399H72.936V254.999H70.436V241.899H72.936V247.299H76.136C76.336 246.199 76.636 245.199 77.236 244.399C77.836 243.499 78.536 242.799 79.536 242.299C80.436 241.799 81.536 241.499 82.636 241.499C83.936 241.499 85.036 241.799 86.036 242.399C87.036 242.999 87.836 243.899 88.336 244.899C88.936 245.899 89.236 247.099 89.236 248.399C89.236 249.699 88.936 250.799 88.336 251.899C87.736 252.999 86.936 253.799 86.036 254.399C85.036 254.999 83.936 255.299 82.636 255.299ZM82.636 253.099C83.536 253.099 84.236 252.899 84.836 252.399C85.436 251.899 85.936 251.299 86.236 250.599C86.536 249.899 86.736 249.099 86.736 248.299C86.736 247.499 86.536 246.699 86.236 245.999C85.936 245.299 85.436 244.699 84.836 244.199C84.236 243.699 83.436 243.499 82.636 243.499C81.836 243.499 81.036 243.699 80.436 244.199C79.836 244.699 79.336 245.299 79.036 245.999C78.736 246.699 78.536 247.499 78.536 248.299C78.536 249.099 78.736 249.899 79.036 250.599C79.336 251.299 79.836 251.899 80.436 252.399C81.036 252.899 81.736 253.099 82.636 253.099Z" fill="#f7f7ff"/>
<path d="M99.7361 242.399C100.936 242.399 102.036 242.699 102.936 243.199C103.836 243.799 104.536 244.499 105.036 245.499C105.536 246.499 105.836 247.499 105.836 248.799C105.836 249.999 105.536 251.199 105.036 252.199C104.536 253.199 103.736 253.999 102.736 254.499C101.736 255.099 100.636 255.399 99.3361 255.399C98.5361 255.399 97.7361 255.299 96.9361 254.999C96.1361 254.699 95.4361 254.299 94.7361 253.599C94.0361 252.999 93.5361 252.099 93.1361 250.999C92.7361 249.899 92.5361 248.499 92.5361 246.799C92.5361 240.799 95.4361 237.399 101.136 236.899L104.436 236.599L104.736 238.699L101.436 239.099C99.2361 239.299 97.6361 239.899 96.6361 240.799C95.6361 241.699 95.0361 243.099 94.9361 244.999C95.4361 244.199 96.1361 243.599 97.0361 243.099C97.7361 242.599 98.7361 242.399 99.7361 242.399ZM99.1361 253.099C99.9361 253.099 100.636 252.899 101.236 252.499C101.836 252.099 102.336 251.599 102.636 250.899C102.936 250.199 103.136 249.499 103.136 248.699C103.136 247.499 102.736 246.499 102.036 245.699C101.336 244.899 100.336 244.499 99.0361 244.499C98.2361 244.499 97.4361 244.699 96.8361 245.099C96.2361 245.499 95.7361 245.999 95.4361 246.599C95.1361 247.199 94.9361 247.899 94.9361 248.699C94.9361 249.499 95.1361 250.199 95.4361 250.899C95.7361 251.599 96.2361 252.099 96.8361 252.499C97.6361 252.899 98.3361 253.099 99.1361 253.099Z" fill="#f7f7ff"/>
<path d="M115.436 255.299C114.136 255.299 112.936 254.999 111.936 254.399C110.936 253.799 110.136 252.899 109.536 251.899C108.936 250.799 108.636 249.699 108.636 248.399C108.636 247.099 108.936 245.999 109.536 244.899C110.136 243.899 110.936 242.999 111.936 242.399C112.936 241.799 114.136 241.499 115.436 241.499C116.736 241.499 117.936 241.799 118.936 242.399C119.936 242.999 120.736 243.899 121.336 244.899C121.936 245.899 122.236 247.099 122.236 248.399C122.236 249.699 121.936 250.799 121.336 251.899C120.736 252.999 119.936 253.799 118.936 254.399C117.936 254.999 116.736 255.299 115.436 255.299ZM115.436 253.099C116.336 253.099 117.136 252.899 117.736 252.399C118.336 251.899 118.836 251.299 119.236 250.599C119.536 249.899 119.736 249.099 119.736 248.299C119.736 247.499 119.536 246.699 119.236 245.999C118.936 245.299 118.436 244.699 117.736 244.199C117.136 243.699 116.336 243.499 115.436 243.499C114.536 243.499 113.736 243.699 113.136 244.199C112.536 244.699 112.036 245.299 111.636 245.999C111.336 246.699 111.136 247.499 111.136 248.299C111.136 249.099 111.336 249.799 111.636 250.599C112.036 251.299 112.436 251.899 113.136 252.399C113.736 252.899 114.536 253.099 115.436 253.099Z" fill="#f7f7ff"/>
<path d="M125.636 254.899V241.799H132.436C133.836 241.799 134.836 242.099 135.536 242.699C136.236 243.299 136.536 244.099 136.536 244.999C136.536 245.699 136.336 246.399 135.936 246.899C135.536 247.399 135.036 247.799 134.436 247.999C135.136 248.199 135.836 248.499 136.336 248.999C136.836 249.499 137.136 250.299 137.136 251.299C137.136 252.199 136.936 252.799 136.536 253.399C136.136 253.899 135.536 254.299 134.836 254.599C134.136 254.799 133.436 254.999 132.636 254.999H125.636V254.899ZM128.036 243.799V247.299H131.936C132.636 247.299 133.136 247.199 133.536 246.899C133.936 246.599 134.136 246.099 134.136 245.499C134.136 244.899 133.936 244.399 133.536 244.199C133.136 243.899 132.636 243.799 132.136 243.799H128.036ZM128.036 249.199V252.999H132.336C132.936 252.999 133.436 252.899 133.936 252.599C134.436 252.399 134.636 251.799 134.636 251.099C134.636 250.299 134.336 249.799 133.736 249.599C133.136 249.399 132.436 249.299 131.436 249.299H128.036V249.199Z" fill="#f7f7ff"/>
<path d="M140.536 241.799H143.036V246.199H146.736C148.236 246.199 149.436 246.599 150.236 247.399C151.136 248.199 151.536 249.199 151.536 250.499C151.536 251.899 151.136 252.899 150.236 253.699C149.336 254.499 148.136 254.899 146.736 254.899H140.636V241.799H140.536ZM143.036 248.199V252.999H146.336C147.236 252.999 147.936 252.799 148.436 252.399C148.836 251.999 149.136 251.399 149.136 250.699C149.136 249.899 148.936 249.399 148.436 248.899C147.936 248.499 147.336 248.299 146.436 248.299H143.036V248.199Z" fill="#f7f7ff"/>
<path d="M166.836 255.299C165.636 255.299 164.636 254.999 163.736 254.499C162.836 253.999 162.036 253.299 161.436 252.399C160.836 251.499 160.436 250.499 160.336 249.399H157.136V254.999H154.636V241.899H157.136V247.299H160.336C160.536 246.199 160.836 245.199 161.436 244.399C162.036 243.499 162.736 242.799 163.736 242.299C164.636 241.799 165.736 241.499 166.836 241.499C168.136 241.499 169.236 241.799 170.236 242.399C171.236 242.999 172.036 243.899 172.536 244.899C173.136 245.899 173.436 247.099 173.436 248.399C173.436 249.699 173.136 250.799 172.536 251.899C171.936 252.999 171.136 253.799 170.236 254.399C169.236 254.999 168.136 255.299 166.836 255.299ZM166.836 253.099C167.736 253.099 168.436 252.899 169.036 252.399C169.636 251.899 170.136 251.299 170.436 250.599C170.736 249.899 170.936 249.099 170.936 248.299C170.936 247.499 170.736 246.699 170.436 245.999C170.136 245.299 169.636 244.699 169.036 244.199C168.436 243.699 167.636 243.499 166.836 243.499C166.036 243.499 165.236 243.699 164.636 244.199C164.036 244.699 163.536 245.299 163.236 245.999C162.936 246.699 162.736 247.499 162.736 248.299C162.736 249.099 162.936 249.899 163.236 250.599C163.536 251.299 164.036 251.899 164.636 252.399C165.236 252.899 165.936 253.099 166.836 253.099Z" fill="#f7f7ff"/>
<path d="M67.136 45.2986C70.536 32.5986 65.636 -3.60139 33.836 2.09861C15.236 5.39861 -0.863991 34.5986 0.0360089 63.2986C0.536009 78.7986 14.436 103.099 32.636 122.699C61.336 153.699 89.736 175.399 88.936 164.999C87.536 147.299 77.636 68.0986 61.636 68.3986C53.236 68.4986 42.336 77.3986 39.236 83.6986C37.036 88.1986 42.336 86.4986 50.436 90.6986C64.536 97.9986 70.636 118.999 69.736 122.699C68.036 129.699 46.136 116.499 34.336 88.9986C22.136 60.4986 30.836 39.7986 38.336 39.6986C44.336 39.5986 48.836 50.0986 49.936 57.6986C51.536 67.1986 63.836 57.5986 67.136 45.2986Z" fill="#EB0045"/>
<path d="M65.136 5.09877C62.636 6.89877 69.836 10.8988 76.936 51.3988C80.736 72.9988 86.536 107.999 90.436 141.499C92.536 159.799 96.436 176.899 98.636 179.199C101.136 181.799 102.536 182.899 106.336 181.399C111.836 179.199 122.736 171.799 132.236 163.999C147.136 151.899 152.836 146.899 153.436 141.699C154.036 136.399 134.636 121.899 125.836 134.699C115.736 149.499 104.436 169.699 101.736 134.999C98.636 94.7988 105.136 41.5988 100.636 30.8988C91.536 9.99878 70.236 1.59877 65.136 5.09877Z" fill="#EB0045"/>
<path d="M136.236 89.2986C136.536 100.499 130.936 106.099 124.536 105.599C114.536 104.799 120.136 47.6986 123.236 45.1986C127.036 42.3986 136.036 78.1986 136.236 89.2986ZM118.136 16.6986C115.836 18.7986 109.636 26.5986 108.636 31.5986C104.336 52.2986 104.936 114.799 106.136 132.399C106.736 140.599 108.836 145.899 113.336 142.899C120.036 138.499 122.036 124.999 134.836 123.299C142.636 122.299 154.436 133.399 157.736 136.199C161.736 139.599 171.636 131.799 169.736 119.599C164.436 86.2986 130.036 5.49856 118.136 16.6986Z" fill="#EB0045"/>
<path d="M132.636 18.4987C173.436 81.5987 167.536 118.999 178.436 118.499C182.036 118.299 213.436 72.1987 206.536 31.5987C204.736 20.6987 190.636 9.59868 181.836 5.39868C173.036 1.19868 168.636 1.29868 171.336 6.49868C188.936 41.4987 181.836 82.8987 176.336 75.2987C169.936 66.2987 165.736 34.6987 162.736 14.0987C161.836 7.99868 161.236 2.69868 159.936 0.998682C158.136 -1.40132 145.936 0.598682 137.236 6.19868C128.036 11.9987 129.736 13.8987 132.636 18.4987Z" fill="#EB0045"/>
</svg>
