<svg width="58" height="46" fill="none" xmlns="http://www.w3.org/2000/svg"><path d="M50.7 3H28.419c-4.069 0-7.363 3.301-7.363 7.379v.194h-2.583c-2.713 0-5.36 1.035-7.363 2.848l-5.167 4.725c-2.067 1.877-3.23 4.53-3.23 7.378v9.644H1.486c-.84 0-1.485.648-1.485 1.489 0 .841.646 1.489 1.486 1.489H7.04C7.944 40.929 10.592 43 13.692 43s5.749-2.071 6.653-4.854h7.04c1.356.064 3.1.13 5.425.13h1.033c.97 2.717 3.553 4.724 6.653 4.724 3.1 0 5.748-2.071 6.652-4.854h3.488c4.07 0 7.363-3.301 7.363-7.379V10.443A7.287 7.287 0 0050.701 3zM21.056 21.317h-5.942l1.421-1.1a4.007 4.007 0 012.52-.906h2.001v2.006zm-7.363 18.706a4.056 4.056 0 01-4.069-4.078 4.056 4.056 0 014.07-4.078 4.056 4.056 0 014.068 4.078 4.056 4.056 0 01-4.069 4.078zm0-11.133c-3.616 0-6.587 2.783-6.975 6.278H5.684V25.46c0-1.941.84-3.818 2.26-5.177l5.167-4.725a7.844 7.844 0 015.36-2.072h2.584v2.848h-2.002c-1.55 0-3.1.583-4.327 1.554l-3.23 2.589c-.775.582-1.033 1.488-.71 2.395a2.245 2.245 0 002.067 1.424h8.202v10.873h-.387c-.452-3.495-3.359-6.278-6.976-6.278zm26.804 11.133a4.056 4.056 0 01-4.069-4.078c.065-2.265 1.873-4.078 4.069-4.078a4.056 4.056 0 014.069 4.078 4.056 4.056 0 01-4.069 4.078zm14.597-9.32a4.401 4.401 0 01-4.392 4.4h-3.23c-.387-3.495-3.423-6.213-6.975-6.213-3.617 0-6.653 2.783-6.975 6.343h-.71c-3.682 0-7.3-.065-8.785-.065V10.314a4.401 4.401 0 014.392-4.401h22.283v.064c2.454 0 4.392 2.007 4.392 4.402v20.323z" fill="#253746"/></svg>