<svg width="33" height="42" fill="none" xmlns="http://www.w3.org/2000/svg"><path d="M27.64 4.602C24.64 1.689 20.714 0 16.5 0S8.361 1.631 5.36 4.66C.627 9.437-.586 16.66 2.3 22.777c.174.35.635 1.281 10.794 17.3.75 1.224 2.078 1.923 3.521 1.923a4.132 4.132 0 003.521-1.98c9.986-15.962 10.39-16.894 10.564-17.243 2.886-6.059 1.673-13.398-3.06-18.175zm.635 17.01c-.52 1.048-7.504 12.29-10.39 16.951a1.515 1.515 0 01-1.27.7c-.52 0-.98-.234-1.27-.7-3-4.718-10.158-15.961-10.62-17.01-2.309-4.893-1.443-10.951 2.54-15.029 2.482-2.563 5.83-3.844 9.177-3.844 3.348 0 6.696 1.281 9.293 3.844 4.099 4.078 4.965 10.194 2.54 15.088z" fill="#253746"/><path d="M16.442 6.932c-4.156 0-7.561 3.437-7.561 7.631 0 4.194 3.405 7.631 7.561 7.631 4.214 0 7.562-3.378 7.562-7.63.057-4.195-3.348-7.632-7.562-7.632zm0 12.583c-2.713 0-4.906-2.214-4.906-4.952s2.193-4.951 4.906-4.951c2.713 0 4.907 2.213 4.907 4.951 0 2.738-2.136 4.952-4.907 4.952z" fill="#253746"/></svg>