<svg width="50" height="42" fill="none" xmlns="http://www.w3.org/2000/svg"><path d="M47.548 10.738H33.484v-1.97h.129c1.355 0 2.387-1.08 2.452-2.414v-3.94C36.065 1.08 34.968 0 33.613 0H2.452C1.097 0 0 1.08 0 2.415v3.939c0 1.334 1.097 2.415 2.452 2.415h.258v18.744c0 2.033 1.677 3.749 3.806 3.749h10.13v6.99c0 2.032 1.677 3.748 3.806 3.748h23.16c2.13 0 3.807-1.652 3.807-3.749V19.507h.13c1.354 0 2.386-1.08 2.451-2.415v-3.94c0-1.333-1.097-2.414-2.452-2.414zm-1.419 2.86c.58 0 1.032.444 1.032 1.016v1.08c0 .572-.451 1.017-1.032 1.017H33.484v-3.113h12.645zM17.807 16.71c-.581 0-1.033-.445-1.033-.953v-1.144c0-.572.452-1.016 1.032-1.016h12.775v3.113H17.807zm12.838-7.879v1.906H19.484v-1.97l11.161.064c0-.063 0 0 0 0zm2.58-5.02v1.144a1.01 1.01 0 01-1.032 1.017h-12.71V2.796h12.71c.581 0 1.033.445 1.033 1.016zm-30.386 0c0-.571.451-1.016 1.032-1.016h12.774v3.177H3.871c-.58 0-1.032-.445-1.032-1.017V3.812zm2.71 22.303V8.769h11.096v1.97h-.258c-1.355 0-2.452 1.08-2.452 2.414v3.94c0 1.334 1.097 2.414 2.452 2.414h.258v8.959h-8.71c-1.354 0-2.451-1.017-2.387-2.351zm13.935 10.738V19.507H30.58v19.697h-8.71c-1.355 0-2.452-1.08-2.387-2.35zM44.58 19.57v17.283a2.363 2.363 0 01-2.388 2.351h-8.71V19.507l11.098.063c0-.063 0 0 0 0z" fill="#253746"/></svg>