<svg width="47" height="46" fill="none" xmlns="http://www.w3.org/2000/svg"><path d="M43.811 28.32h-5.038v-16.8h.128c1.34 0 2.36-1.057 2.423-2.364V5.3c0-1.306-1.084-2.364-2.423-2.364H8.099c-1.34 0-2.423 1.058-2.423 2.364v3.857c0 1.307 1.084 2.364 2.423 2.364h.255V28.32H3.19C1.403 28.32 0 29.937 0 31.865v7.652c0 1.93 1.467 3.547 3.189 3.547h5.867c1.658 0 3.06-1.307 3.06-2.986v-.56c0-.436.128-.81.192-.996h22.384c.127.187.191.56.191.995v.56c0 1.618 1.34 2.987 3.061 2.987h5.867c1.722 0 3.125-1.618 3.189-3.547v-7.652c0-1.928-1.467-3.546-3.189-3.546zm-7.844-16.736v16.735H24.935V11.522l11.032.062c0-.063 0-.063 0 0zm2.551-4.915v1.12c0 .56-.446.995-1.02.995H24.935v-3.11h12.563c.574 0 1.02.435 1.02.995zm-30.036 0c0-.56.446-.996 1.02-.996H22.13v3.111H9.502c-.574 0-1.02-.435-1.02-.995v-1.12zm2.678 4.915c0-.063 0-.063 0 0l10.969-.063V28.32H11.16V11.584zM44.385 39.58c0 .56-.319.995-.574.995h-5.867a.497.497 0 01-.51-.498v-.56c0-2.115-.956-3.546-2.36-3.546H11.926c-1.403 0-2.36 1.431-2.36 3.547v.56a.497.497 0 01-.51.497H3.19c-.255 0-.574-.373-.574-.995v-7.652c0-.56.319-.996.574-.996h40.62c.255 0 .574.373.574.995v7.653z" fill="#253746"/></svg>